{"title":"10.Cent.Pistol.2014.WEBRip.XViD.AC3-Sorrow","uid":12160147,"size":1148081276,"categoryP":"video","categoryS":"movies","magnet":"?xt=urn:btih:ac06a00a30a38997d4f22f1e8b4d939499094558&amp;dn=10.Cent.Pistol.2014.WEBRip.XViD.AC3-Sorrow&amp;tr=udp%3A%2F%2Ftracker.openbittorrent.com%3A80&amp;tr=udp%3A%2F%2Fopen.demonii.com%3A1337&amp;tr=udp%3A%2F%2Ftracker.coppersurfer.tk%3A6969&amp;tr=udp%3A%2F%2Fexodus.desync.com%3A6969","seeders":2,"leechers":0,"uploader":null,"files":2,"time":1437876678,"description":"10 Cent Pistol 2014 WEBRip XViD AC3-Sorrow\n\nGeneral\nComplete name                            : 10.Cent.Pistol.2014.WEBRip.XViD.AC3-Sorrow.avi\nFormat                                   : AVI\nFormat/Info                              : Audio Video Interleave\nFile size                                : 1.07 GiB\nDuration                                 : 1h 30mn\nOverall bit rate                         : 1 683 Kbps\nWriting application                      : Lavf55.19.104\nWriting library                          : \n\nVideo\nID                                       : 0\nFormat                                   : MPEG-4 Visual\nFormat profile                           : Simple@L3\nFormat settings, BVOP                    : No\nFormat settings, QPel                    : No\nFormat settings, GMC                     : No warppoints\nFormat settings, Matrix                  : Default (H.263)\nCodec ID                                 : XVID\nCodec ID/Hint                            : XviD\nDuration                                 : 1h 30mn\nBit rate                                 : 1 224 Kbps\nWidth                                    : 720 pixels\nHeight                                   : 304 pixels\nDisplay aspect ratio                     : 2.40:1\nFrame rate                               : 23.976 fps\nColor space                              : YUV\nChroma subsampling                       : 4:2:0\nBit depth                                : 8 bits\nScan type                                : Progressive\nCompression mode                         : Lossy\nBits/(Pixel*Frame)                       : 0.233\nStream size                              : 796 MiB (73%)\nWriting library                          : XviD 64\n\nAudio\nID                                       : 1\nFormat                                   : AC-3\nFormat/Info                              : Audio Coding 3\nMode extension                           : CM (complete main)\nFormat settings, Endianness              : Big\nCodec ID                                 : 2000\nDuration                                 : 1h 30mn\nBit rate mode                            : Constant\nBit rate                                 : 448 Kbps\nChannel count                            : 2 channels\nChannel positions                        : Front: L R\nSampling rate                            : 48.0 KHz\nBit depth                                : 16 bits\nCompression mode                         : Lossy\nStream size                              : 292 MiB (27%)\nAlignment                                : Aligned on interleaves\nInterleave, duration                     : 32 ms (0.77 video frame)\nInterleave, preload duration             : 512 ms\n\n\n\nCrime:Thriller\n\nA story about two lifelong criminals who maneuver through the shady underbelly of Los Angeles in search of wealth, love and redemption.\n\n\nDirector: Michael C. Martin \n\nWriter: Michael C. Martin \n\nStars: Jena Malone, JT Alexander, Damon Alexander \n\n &lt;a href=&quot;\nhttp://www.imdb.com/title/tt2134170/&quot; rel=&quot;nofollow&quot; target=&quot;_NEW&quot;&gt;\nhttp://www.imdb.com/title/tt2134170/&lt;/a&gt;","torrent":{"xt":"urn:btih:ac06a00a30a38997d4f22f1e8b4d939499094558","amp;dn":"10.Cent.Pistol.2014.WEBRip.XViD.AC3-Sorrow","amp;tr":["udp%3A%2F%2Ftracker.openbittorrent.com%3A80","udp%3A%2F%2Fopen.demonii.com%3A1337","udp%3A%2F%2Ftracker.coppersurfer.tk%3A6969","udp%3A%2F%2Fexodus.desync.com%3A6969"],"infoHash":"ac06a00a30a38997d4f22f1e8b4d939499094558","infoHashBuffer":{"type":"Buffer","data":[172,6,160,10,48,163,137,151,212,242,47,30,139,77,147,148,153,9,69,88]},"announce":[],"urlList":[]}}